<svg xmlns="http://www.w3.org/2000/svg" viewBox="0 0 100 125">
  <path d="M93.6 69.8S82.2 83 78.8 86.1l-.6.5-.3.2-.3.2-.3.2-.2.1-.3.1h-.2c-.2 0-1.6.1-1.7.1 1.8-9-.1-17.3-1.3-21l-.3-.9c-.5-1.2-1.1-2.4-1.8-3.5l-.1-.1c-.6-.9-1.3-1.8-2.1-2.5-3.3-2.3-6.8-6-8.6-10.4-.1.4-.3.7-.6.8-.7.3-1.9-1-2.5-2.9-.6-1.8-.5-3.5.2-3.8.4-.1.9.2 1.4.8-.4-2-3.2-16.1 5.5-23.7 5.3-4.6 11.7-4.9 12.8-6.8 2.2-3.7 3.5 3.2 3.5 3.2s.6.2 2.9-1c2.7-1.3 3.2 6.3 3.2 6.3s6 7.6 4.3 22.2c.6-.8 1.3-1.2 1.7-1 .7.3.7 2-.1 3.8-.8 1.8-2 3-2.7 2.7l-.3-.3-.1.2-.2.5-.2.4-.3.5-.2.4-.3.4-.2.4-.3.4-.2.4-.3.4-.3.3-.3.4-.3.4-.3.4-.3.3-.2.3-.3.3-.3.3-.4.5-.3.3-.3.3-.3.3-.3.3-.4.2-.4.3-.3.2-.4.3-.1.2-.1.1c18.9 4.7 11.5 10.7 11.5 10.7zM48.1 45.2c-.1 3.8-1.4 7.4-1.4 10.2-.5 0-1.1.1-1.7.1-3.8 0-7.3 1.6-10 4.2-.3.3-.6.7-.9 1l-.1.1s-.1.1-.1.2c-.1.1-.2.3-.4.5-.8 1.2-1.5 2.5-2 3.8 0 .1-.1.2-.1.3-1.6 4.3-3 11.4-1 21.9-1.1 0-2.2-.5-3.1-1.5-3.8-3.8-10.5-11.4-14.7-15.9-1.6-1.7-.8-3.4.9-4.8l-2.1.2C7.9 63 9.6 62 9.6 62c1.2-1.1 0 0-2.7-1.6-1.5-.9-2-3.1-2-3.3.3.1 4.2 1.2 6.2-.3 2.4-1.8 4.6-3 2-7-2.6-4-5-14.8-1.9-20.2 3.2-5.6 5.4-6.8 8.3-8.5 6.5-3.8 19.9-3.3 20.4 2.9 0 0 1.5-1.3 3.2 0 5.9 4.3 5.2 15.7 5 21.2z"/>
  <path d="M67.8 63.5s-.4-.7-.9-1.1c-.8-.8-2.5-1.8-5.5-1.8s-1.7.9-2.2 1.2c-.5.3-1.6.9-2.7.9h-3.8s-2.6-.1-3.8-.1c-1.1 0-4.9-2.3-4.9-2.3-2.9-.7-4.6.7-5.4 1.5-.5.5-.7.9-.7.9-1.9 3.1-4.5 11.9-4.4 18 .1 3.7 1 5.3 1.7 6 .5.5 1 .6 1 .6 1.1.3 2.6-.2 3.7-.9 1.1-.6 1.8-1.3 1.8-1.3.1-.1 1.7-1.7 3.8-3.1 1-.7 4.3-1.1 7.1-1.1 2.7 0 5.9.3 7.4 1.3 2.1 1.3 3.7 2.8 3.8 3 0 0 3 2.4 4.4 2.1 0 0 1-.1 1.5-.6.7-.7 1.9-2 1.9-5.6.2-6.2-1.9-14.8-3.8-17.6zm-26.7 6.3c-1.3 0-2.3-1-2.3-2.3 0-1.3 1-2.3 2.3-2.3 1.3 0 2.3 1 2.3 2.3 0 1.3-1 2.3-2.3 2.3zm8.7 5.9c-.2-.1-.3-.1-.5-.1-.8 0-1.4.6-1.4 1.4 0 .2 0 .3.1.5-.4.2-.8.2-1.2.2-.5 0-1-.1-1.4-.3 0-.1.1-.3.1-.4 0-.8-.6-1.4-1.4-1.4h-.3c-.1-.3-.2-.7-.2-1.1 0-.4.1-.8.2-1.1h.3c.8 0 1.4-.6 1.4-1.4 0-.1 0-.3-.1-.4.4-.2.9-.3 1.4-.3.4 0 .8.1 1.2.2-.1.2-.1.3-.1.5 0 .8.6 1.4 1.4 1.4.2 0 .3 0 .5-.1.1.4.2.8.2 1.2.1.4 0 .8-.2 1.2zm3-13.1v.1-.1zm5.5 14.1c-1.3 0-2.3-1-2.3-2.3 0-1.3 1-2.3 2.3-2.3 1.3 0 2.3 1 2.3 2.3 0 1.3-1 2.3-2.3 2.3zm3-7.7c-.7 0-1.3-.6-1.3-1.3 0-.7.6-1.3 1.3-1.3.7 0 1.3.6 1.3 1.3.1.7-.5 1.3-1.3 1.3zm3 3c-.7 0-1.3-.6-1.3-1.3 0-.7.6-1.3 1.3-1.3.7 0 1.3.6 1.3 1.3 0 .7-.6 1.3-1.3 1.3zm0-5.9c-.7 0-1.3-.6-1.3-1.3 0-.7.6-1.3 1.3-1.3.7 0 1.3.6 1.3 1.3 0 .7-.6 1.3-1.3 1.3zm3 3c-.7 0-1.3-.6-1.3-1.3 0-.7.6-1.3 1.3-1.3.7 0 1.3.6 1.3 1.3 0 .7-.6 1.2-1.3 1.3z"/>
  <path fill="none" d="M30.6 87.5c-2.1-10.4-.7-17.6 1-21.9 0-.1.1-.2.1-.3.7-1.8 1.5-3.1 2-3.8.2-.2.3-.4.4-.5.1-.1.1-.1.1-.2l.1-.1M73.5 66.5l-.3-.9c-.9-2.3-1.6-3.3-1.8-3.5l-.1-.1"/>
  <text y="90" font-size="10" font-weight="bold" font-family="'Open Sans', 'Helvetica Neue', Helvetica, Arial-Unicode, Arial, sans-serif">
    <tspan x="0" dy=".6em">Local</tspan>
    <tspan x="0" dy="1.2em">(2 Player 1 PC)</tspan>
  </text>
</svg>
